<svg xmlns="http://www.w3.org/2000/svg" width="1320" height="1250" viewBox="0 0 1320 1250" role="img"><title>04 · Acuerdos y reputación</title><defs><marker id="arrow" viewBox="0 0 10 10" refX="9" refY="5" markerWidth="7" markerHeight="7" orient="auto-start-reverse"><path d="M0 0L10 5L0 10Z" fill="#526579"/></marker></defs><rect width="100%" height="100%" fill="white"/><g font-family="Arial, sans-serif"><text x="35" y="45" font-size="28" fill="#152E4D" font-weight="700">04 · Acuerdos y reputación</text><text x="35" y="76" font-size="16" fill="#263449" font-weight="400">Modelo objetivo · PK/FK y atributos seleccionados · Referencias repetidas, no tablas duplicadas</text><polyline points="561.3333333333334,435 561.3333333333334,372 650,372 650,360" fill="none" stroke="#697D92" stroke-width="1.6"/><rect x="566.3333333333334" y="406" width="28" height="19" fill="white"/><text x="569.3333333333334" y="420" font-size="13" fill="#385A7A" font-weight="700">R1</text><polyline points="555.3333333333334,429 567.3333333333334,429" stroke="#385A7A" stroke-width="1.8"/><circle cx="561.3333333333334" cy="416" r="4" fill="white" stroke="#385A7A" stroke-width="1.5"/><polyline points="656,366 644,366" stroke="#385A7A" stroke-width="1.8"/><polyline points="656,373 644,373" stroke="#385A7A" stroke-width="1.8"/><polyline points="605.6666666666666,435 605.6666666666666,379 1090,379 1090,360" fill="none" stroke="#697D92" stroke-width="1.6"/><rect x="610.6666666666666" y="406" width="28" height="19" fill="white"/><text x="613.6666666666666" y="420" font-size="13" fill="#385A7A" font-weight="700">R2</text><path d="M599.6666666666666,435L605.6666666666666,424L611.6666666666666,435M605.6666666666666,435L605.6666666666666,424" fill="none" stroke="#385A7A" stroke-width="1.8"/><circle cx="605.6666666666666" cy="416" r="4" fill="white" stroke="#385A7A" stroke-width="1.5"/><polyline points="1096,366 1084,366" stroke="#385A7A" stroke-width="1.8"/><polyline points="1096,373 1084,373" stroke="#385A7A" stroke-width="1.8"/><polyline points="375,572.75 430,572.75 430,572.75 485,572.75" fill="none" stroke="#697D92" stroke-width="1.6"/><rect x="417" y="552.75" width="28" height="19" fill="white"/><text x="420" y="566.75" font-size="13" fill="#385A7A" font-weight="700">R3</text><polyline points="381,566.75 381,578.75" stroke="#385A7A" stroke-width="1.8"/><circle cx="394" cy="572.75" r="4" fill="white" stroke="#385A7A" stroke-width="1.5"/><polyline points="479,578.75 479,566.75" stroke="#385A7A" stroke-width="1.8"/><circle cx="466" cy="572.75" r="4" fill="white" stroke="#385A7A" stroke-width="1.5"/><polyline points="165.66666666666669,745 165.66666666666669,703 694.3333333333334,703 694.3333333333334,670" fill="none" stroke="#697D92" stroke-width="1.6"/><rect x="170.66666666666669" y="716" width="28" height="19" fill="white"/><text x="173.66666666666669" y="730" font-size="13" fill="#385A7A" font-weight="700">R4</text><path d="M159.66666666666669,745L165.66666666666669,734L171.66666666666669,745M165.66666666666669,745L165.66666666666669,734" fill="none" stroke="#385A7A" stroke-width="1.8"/><circle cx="165.66666666666669" cy="726" r="4" fill="white" stroke="#385A7A" stroke-width="1.5"/><polyline points="700.3333333333334,676 688.3333333333334,676" stroke="#385A7A" stroke-width="1.8"/><polyline points="700.3333333333334,683 688.3333333333334,683" stroke="#385A7A" stroke-width="1.8"/><polyline points="254.33333333333334,745 254.33333333333334,725 26,725 26,380 165.66666666666669,380 165.66666666666669,360" fill="none" stroke="#697D92" stroke-width="1.6"/><rect x="-1" y="538.5" width="28" height="19" fill="white"/><text x="2" y="552.5" font-size="13" fill="#385A7A" font-weight="700">R5</text><path d="M248.33333333333334,745L254.33333333333334,734L260.33333333333337,745M254.33333333333334,745L254.33333333333334,734" fill="none" stroke="#385A7A" stroke-width="1.8"/><circle cx="254.33333333333334" cy="726" r="4" fill="white" stroke="#385A7A" stroke-width="1.5"/><polyline points="171.66666666666669,366 159.66666666666669,366" stroke="#385A7A" stroke-width="1.8"/><polyline points="171.66666666666669,373 159.66666666666669,373" stroke="#385A7A" stroke-width="1.8"/><polyline points="1045.6666666666667,745 1045.6666666666667,717 738.6666666666666,717 738.6666666666666,670" fill="none" stroke="#697D92" stroke-width="1.6"/><rect x="1050.6666666666667" y="716" width="28" height="19" fill="white"/><text x="1053.6666666666667" y="730" font-size="13" fill="#385A7A" font-weight="700">R6</text><path d="M1039.6666666666667,745L1045.6666666666667,734L1051.6666666666667,745M1045.6666666666667,745L1045.6666666666667,734" fill="none" stroke="#385A7A" stroke-width="1.8"/><circle cx="1045.6666666666667" cy="726" r="4" fill="white" stroke="#385A7A" stroke-width="1.5"/><polyline points="744.6666666666666,676 732.6666666666666,676" stroke="#385A7A" stroke-width="1.8"/><polyline points="744.6666666666666,683 732.6666666666666,683" stroke="#385A7A" stroke-width="1.8"/><polyline points="1134.3333333333333,745 1134.3333333333333,725 32,725 32,380 254.33333333333334,380 254.33333333333334,360" fill="none" stroke="#697D92" stroke-width="1.6"/><rect x="-1" y="538.5" width="28" height="19" fill="white"/><text x="2" y="552.5" font-size="13" fill="#385A7A" font-weight="700">R7</text><path d="M1128.3333333333333,745L1134.3333333333333,734L1140.3333333333333,745M1134.3333333333333,745L1134.3333333333333,734" fill="none" stroke="#385A7A" stroke-width="1.8"/><circle cx="1134.3333333333333" cy="726" r="4" fill="white" stroke="#385A7A" stroke-width="1.5"/><polyline points="260.33333333333337,366 248.33333333333334,366" stroke="#385A7A" stroke-width="1.8"/><polyline points="260.33333333333337,373 248.33333333333334,373" stroke="#385A7A" stroke-width="1.8"/><rect x="45" y="125" width="330" height="235" rx="7" fill="#F8FAFC" stroke="#94A3B8" stroke-width="2" stroke-dasharray="5 4"/><text x="60" y="153" font-size="21" fill="#172B45" font-weight="700">students</text><text x="60" y="175" font-size="13" fill="#94A3B8" font-weight="400">Referencia · misma tabla</text><path d="M45 187H375" stroke="#94A3B8"/><text x="57" y="211" font-size="12" fill="#94A3B8" font-weight="700">PK</text><text x="108" y="211" font-size="14" fill="#263449" font-weight="500">id</text><text x="303" y="211" font-size="11" fill="#526579" font-weight="400">uuid</text><text x="57" y="232" font-size="12" fill="#94A3B8" font-weight="700">FK</text><text x="108" y="232" font-size="14" fill="#263449" font-weight="500">avatar_image_id</text><text x="303" y="232" font-size="11" fill="#526579" font-weight="400">uuid</text><text x="57" y="253" font-size="12" fill="#94A3B8" font-weight="700"></text><text x="108" y="253" font-size="14" fill="#263449" font-weight="500">email</text><text x="303" y="253" font-size="11" fill="#526579" font-weight="400">text</text><text x="57" y="274" font-size="12" fill="#94A3B8" font-weight="700"></text><text x="108" y="274" font-size="14" fill="#263449" font-weight="500">verified</text><text x="303" y="274" font-size="11" fill="#526579" font-weight="400">boolean</text><text x="60" y="348" font-size="12" fill="#526579" font-weight="400">11 columnas · DDL: schema-target.sql</text><rect x="485" y="125" width="330" height="235" rx="7" fill="#F8FAFC" stroke="#94A3B8" stroke-width="2" stroke-dasharray="5 4"/><text x="500" y="153" font-size="21" fill="#172B45" font-weight="700">conversations</text><text x="500" y="175" font-size="13" fill="#94A3B8" font-weight="400">Referencia · misma tabla</text><path d="M485 187H815" stroke="#94A3B8"/><text x="497" y="211" font-size="12" fill="#94A3B8" font-weight="700">PK</text><text x="548" y="211" font-size="14" fill="#263449" font-weight="500">id</text><text x="743" y="211" font-size="11" fill="#526579" font-weight="400">uuid</text><text x="497" y="232" font-size="12" fill="#94A3B8" font-weight="700">FK</text><text x="548" y="232" font-size="14" fill="#263449" font-weight="500">listing_id</text><text x="743" y="232" font-size="11" fill="#526579" font-weight="400">uuid</text><text x="497" y="253" font-size="12" fill="#94A3B8" font-weight="700">FK</text><text x="548" y="253" font-size="14" fill="#263449" font-weight="500">buyer_id</text><text x="743" y="253" font-size="11" fill="#526579" font-weight="400">uuid</text><text x="500" y="348" font-size="12" fill="#526579" font-weight="400">4 columnas · DDL: schema-target.sql</text><rect x="925" y="125" width="330" height="235" rx="7" fill="#F8FAFC" stroke="#94A3B8" stroke-width="2" stroke-dasharray="5 4"/><text x="940" y="153" font-size="21" fill="#172B45" font-weight="700">campuses</text><text x="940" y="175" font-size="13" fill="#94A3B8" font-weight="400">Referencia · misma tabla</text><path d="M925 187H1255" stroke="#94A3B8"/><text x="937" y="211" font-size="12" fill="#94A3B8" font-weight="700">PK</text><text x="988" y="211" font-size="14" fill="#263449" font-weight="500">id</text><text x="1183" y="211" font-size="11" fill="#526579" font-weight="400">uuid</text><text x="940" y="348" font-size="12" fill="#526579" font-weight="400">3 columnas · DDL: schema-target.sql</text><rect x="45" y="435" width="330" height="235" rx="7" fill="#F8FAFC" stroke="#94A3B8" stroke-width="2" stroke-dasharray="5 4"/><text x="60" y="463" font-size="21" fill="#172B45" font-weight="700">listings</text><text x="60" y="485" font-size="13" fill="#94A3B8" font-weight="400">Referencia · misma tabla</text><path d="M45 497H375" stroke="#94A3B8"/><text x="57" y="521" font-size="12" fill="#94A3B8" font-weight="700">PK</text><text x="108" y="521" font-size="14" fill="#263449" font-weight="500">id</text><text x="303" y="521" font-size="11" fill="#526579" font-weight="400">uuid</text><text x="57" y="542" font-size="12" fill="#94A3B8" font-weight="700">FK</text><text x="108" y="542" font-size="14" fill="#263449" font-weight="500">seller_id</text><text x="303" y="542" font-size="11" fill="#526579" font-weight="400">uuid</text><text x="57" y="563" font-size="12" fill="#94A3B8" font-weight="700">FK</text><text x="108" y="563" font-size="14" fill="#263449" font-weight="500">category_id</text><text x="303" y="563" font-size="11" fill="#526579" font-weight="400">uuid</text><text x="57" y="584" font-size="12" fill="#94A3B8" font-weight="700">FK</text><text x="108" y="584" font-size="14" fill="#263449" font-weight="500">campus_id</text><text x="303" y="584" font-size="11" fill="#526579" font-weight="400">uuid</text><text x="57" y="605" font-size="12" fill="#94A3B8" font-weight="700">FK</text><text x="108" y="605" font-size="14" fill="#263449" font-weight="500">reserved_deal_id</text><text x="303" y="605" font-size="11" fill="#526579" font-weight="400">uuid</text><text x="57" y="626" font-size="12" fill="#94A3B8" font-weight="700"></text><text x="108" y="626" font-size="14" fill="#263449" font-weight="500">price</text><text x="303" y="626" font-size="11" fill="#526579" font-weight="400">decimal</text><text x="57" y="647" font-size="12" fill="#94A3B8" font-weight="700"></text><text x="108" y="647" font-size="14" fill="#263449" font-weight="500">type</text><text x="303" y="647" font-size="11" fill="#526579" font-weight="400">text</text><text x="60" y="658" font-size="12" fill="#526579" font-weight="400">14 columnas · DDL: schema-target.sql</text><rect x="485" y="435" width="330" height="235" rx="7" fill="#EAF2FB" stroke="#286095" stroke-width="2" /><text x="500" y="463" font-size="21" fill="#172B45" font-weight="700">deals</text><text x="500" y="485" font-size="13" fill="#286095" font-weight="400">V1 ampliada · modelo objetivo</text><path d="M485 497H815" stroke="#286095"/><text x="497" y="521" font-size="12" fill="#286095" font-weight="700">PK</text><text x="548" y="521" font-size="14" fill="#263449" font-weight="500">id</text><text x="743" y="521" font-size="11" fill="#526579" font-weight="400">uuid</text><text x="497" y="542" font-size="12" fill="#286095" font-weight="700">FK</text><text x="548" y="542" font-size="14" fill="#263449" font-weight="500">conversation_id</text><text x="743" y="542" font-size="11" fill="#526579" font-weight="400">uuid</text><text x="497" y="563" font-size="12" fill="#286095" font-weight="700">FK</text><text x="548" y="563" font-size="14" fill="#263449" font-weight="500">campus_id</text><text x="743" y="563" font-size="11" fill="#526579" font-weight="400">uuid</text><text x="497" y="584" font-size="12" fill="#286095" font-weight="700"></text><text x="548" y="584" font-size="14" fill="#263449" font-weight="500">price</text><text x="743" y="584" font-size="11" fill="#526579" font-weight="400">decimal</text><text x="497" y="605" font-size="12" fill="#286095" font-weight="700"></text><text x="548" y="605" font-size="14" fill="#263449" font-weight="500">status</text><text x="743" y="605" font-size="11" fill="#526579" font-weight="400">text</text><text x="500" y="658" font-size="12" fill="#526579" font-weight="400">12 columnas · DDL: schema-target.sql</text><rect x="45" y="745" width="330" height="235" rx="7" fill="#EAF2FB" stroke="#286095" stroke-width="2" /><text x="60" y="773" font-size="21" fill="#172B45" font-weight="700">reviews</text><text x="60" y="795" font-size="13" fill="#286095" font-weight="400">V1 ampliada · modelo objetivo</text><path d="M45 807H375" stroke="#286095"/><text x="57" y="831" font-size="12" fill="#286095" font-weight="700">PK</text><text x="108" y="831" font-size="14" fill="#263449" font-weight="500">id</text><text x="303" y="831" font-size="11" fill="#526579" font-weight="400">uuid</text><text x="57" y="852" font-size="12" fill="#286095" font-weight="700">FK</text><text x="108" y="852" font-size="14" fill="#263449" font-weight="500">deal_id</text><text x="303" y="852" font-size="11" fill="#526579" font-weight="400">uuid</text><text x="57" y="873" font-size="12" fill="#286095" font-weight="700">FK</text><text x="108" y="873" font-size="14" fill="#263449" font-weight="500">reviewer_id</text><text x="303" y="873" font-size="11" fill="#526579" font-weight="400">uuid</text><text x="57" y="894" font-size="12" fill="#286095" font-weight="700"></text><text x="108" y="894" font-size="14" fill="#263449" font-weight="500">rating</text><text x="303" y="894" font-size="11" fill="#526579" font-weight="400">smallint</text><text x="60" y="968" font-size="12" fill="#526579" font-weight="400">6 columnas · DDL: schema-target.sql</text><rect x="925" y="745" width="330" height="235" rx="7" fill="#FFF6E5" stroke="#B27518" stroke-width="2" /><text x="940" y="773" font-size="21" fill="#172B45" font-weight="700">deal_events</text><text x="940" y="795" font-size="13" fill="#B27518" font-weight="400">Nueva · desarrollo pendiente</text><path d="M925 807H1255" stroke="#B27518"/><text x="937" y="831" font-size="12" fill="#B27518" font-weight="700">PK</text><text x="988" y="831" font-size="14" fill="#263449" font-weight="500">id</text><text x="1183" y="831" font-size="11" fill="#526579" font-weight="400">uuid</text><text x="937" y="852" font-size="12" fill="#B27518" font-weight="700">FK</text><text x="988" y="852" font-size="14" fill="#263449" font-weight="500">deal_id</text><text x="1183" y="852" font-size="11" fill="#526579" font-weight="400">uuid</text><text x="937" y="873" font-size="12" fill="#B27518" font-weight="700">FK</text><text x="988" y="873" font-size="14" fill="#263449" font-weight="500">actor_id</text><text x="1183" y="873" font-size="11" fill="#526579" font-weight="400">uuid</text><text x="940" y="968" font-size="12" fill="#526579" font-weight="400">5 columnas · DDL: schema-target.sql</text><text x="35" y="1026" font-size="15" fill="#526579" font-weight="700">RELACIONES · FK del origen → tabla referenciada · cardinalidad origen : destino</text><text x="35" y="1055" font-size="13" fill="#263449" font-weight="400">R1 deals.conversation_id → conversations  [0..1 : 1]</text><text x="675" y="1055" font-size="13" fill="#263449" font-weight="400">R2 deals.campus_id → campuses  [0..N : 1]</text><text x="35" y="1081" font-size="13" fill="#263449" font-weight="400">R3 listings.reserved_deal_id → deals  [0..1 : 0..1]</text><text x="675" y="1081" font-size="13" fill="#263449" font-weight="400">R4 reviews.deal_id → deals  [0..N : 1]</text><text x="35" y="1107" font-size="13" fill="#263449" font-weight="400">R5 reviews.reviewer_id → students  [0..N : 1]</text><text x="675" y="1107" font-size="13" fill="#263449" font-weight="400">R6 deal_events.deal_id → deals  [0..N : 1]</text><text x="35" y="1133" font-size="13" fill="#263449" font-weight="400">R7 deal_events.actor_id → students  [0..N : 1]</text><text x="35" y="1205" font-size="14" fill="#263449" font-weight="400">Pata de cuervo = muchos; círculo = opcional; barra = uno. Las FK opcionales están explicitadas en la lista.</text><text x="35" y="1230" font-size="14" fill="#263449" font-weight="400">Azul: tabla V1 ampliada. Ámbar: nueva. Gris discontinuo: la misma tabla, referenciada desde otra vista.</text></g></svg>